<svg width="100" height="100" viewBox="0 0 100 100" fill="none" xmlns="http://www.w3.org/2000/svg">
<path d="M61.9114 13.582C61.9114 13.582 65.9382 15.8077 64.1551 21.5411C62.3719 27.2745 63.6827 26.7664 66.4932 24.565C69.3037 22.3636 72.3032 27.0809 68.2527 32.391C64.2023 37.6889 66.0091 37.6405 68.4653 36.8785C70.9215 36.1165 73.9918 42.1765 64.7691 47.9341C55.5464 53.6917 57.7428 54.5988 61.7224 54.2239C65.702 53.8368 67.2962 57.3446 59.8921 63.0538C52.4879 68.763 51.8384 68.6179 54.0821 70.6862C56.3258 72.7546 51.8856 75.5366 45.4144 76.6374C38.9549 77.7381 37.9157 80 37.9157 80C37.9157 80 32.4128 76.8672 30.2045 69.767C28.0081 62.6667 28.8938 60.1266 32.2239 62.1829C35.554 64.2513 35.6012 59.0138 34.1487 55.7963C32.6962 52.5788 29.189 43.7489 31.4799 40.9185C33.7708 38.0881 35.9318 41.9708 37.526 45.0432C39.1202 48.1155 38.6006 41.8257 36.9592 37.0358C35.3178 32.2337 35.2705 26.5245 38.6006 24.8916C41.9308 23.2587 43.4777 25.8955 45.5797 30.8427C47.6935 35.7899 48.2013 29.0646 46.9377 24.3231C45.6742 19.5694 47.8706 14.6827 50.9173 18.5171C53.964 22.3515 54.1529 19.6662 54.4245 17.1261C54.708 14.586 58.6403 11.7556 61.9114 13.582Z" fill="#CF6B06"/>
<path d="M61.9418 13.5798C61.9418 13.5798 65.9551 15.8055 64.178 21.5391C62.4008 27.2727 63.7072 26.7646 66.5083 24.5631C69.3094 22.3616 72.2988 27.0791 68.2619 32.3894C64.225 37.6875 66.0257 37.6391 68.4738 36.8771C70.9218 36.115 73.9818 42.1752 64.79 47.933C55.5981 53.6908 57.7872 54.598 61.7535 54.223C65.7197 53.8359 67.3086 57.3438 59.9292 63.0532C52.5498 68.7626 51.9025 68.6175 54.1387 70.6859C56.3749 72.7544 51.9496 75.5365 45.4999 76.6373C39.0621 77.738 38.0264 80 38.0264 80C37.9205 76.601 38.0735 71.327 39.6153 65.2547C41.157 59.1824 45.2646 51.586 46.7593 49.4692C48.254 47.3524 53.5973 35.0021 55.7511 29.5589C57.2222 25.8332 58.2697 17.8013 58.7876 13.0959C59.8115 12.8903 60.9178 12.9992 61.9418 13.5798Z" fill="#DB7906"/>
<path d="M52.6456 28.9137C52.5396 28.673 52.2687 28.5647 52.0332 28.661C51.7976 28.7693 51.6916 29.0461 51.7859 29.2868C51.7859 29.2989 53.1991 32.5845 53.2579 34.6064C52.834 35.6414 52.3511 36.7728 51.8212 37.9643C51.8094 37.9883 51.7976 38.0244 51.7859 38.0485C50.7259 40.4435 49.4658 43.1154 48.0055 45.9437C46.8749 37.3384 42.0465 32.5002 42.0347 32.4762C41.858 32.2956 41.5518 32.2956 41.3752 32.4762C41.1985 32.6567 41.1985 32.9696 41.3752 33.1501C41.387 33.1622 46.5099 38.3012 47.2165 47.424C46.3803 48.9886 45.4853 50.6013 44.5196 52.2381C43.2241 54.4285 42.1289 56.6671 41.2221 58.8816C39.962 52.1298 34.8038 46.9546 34.792 46.9426C34.6153 46.7621 34.3091 46.7621 34.1325 46.9426C33.9558 47.1231 33.9558 47.436 34.1325 47.6166C34.1443 47.6286 39.962 53.4657 40.5155 60.6869C39.2554 64.0808 38.4192 67.4387 37.9482 70.5919C36.9354 77.3437 37.5713 83.2169 39.3731 86.7433C39.4909 86.972 39.7736 87.0682 39.9973 86.9479C40.2211 86.8275 40.3153 86.5387 40.1975 86.31C38.4899 82.9522 37.8893 77.2956 38.8785 70.7363V70.7123C39.4085 69.9179 43.919 63.6115 56.4848 60.3018C56.7321 60.2416 56.8852 59.9768 56.8263 59.7241C56.7674 59.4713 56.5083 59.3149 56.261 59.375C46.3685 61.9867 41.2928 66.4638 39.22 68.7866C39.7147 66.2472 40.4448 63.5994 41.4341 60.9276V60.9156C42.4469 58.1835 43.7423 55.4275 45.3322 52.7316C45.4264 52.5751 45.5088 52.4186 45.6031 52.2742C46.1919 51.7206 52.1509 46.401 62.4674 43.8856C62.7147 43.8254 62.8678 43.5727 62.8089 43.3079C62.75 43.0552 62.5027 42.8987 62.2436 42.9589C54.7771 44.7762 49.5247 48.0619 46.8867 50.0236C47.2989 49.2774 47.7111 48.5312 48.0997 47.7971C48.1115 47.7851 48.1233 47.761 48.1233 47.7489C49.9016 44.4152 51.3972 41.2619 52.622 38.4818C53.152 37.9522 57.262 33.9445 62.7029 31.7902C62.9384 31.6939 63.0562 31.4171 62.9738 31.1764C62.8796 30.9356 62.6087 30.8153 62.3732 30.8995C58.5457 32.416 55.3542 34.811 53.5406 36.3636C55.7664 31.1041 56.8616 27.65 56.8616 27.6259C56.9441 27.3732 56.8028 27.1084 56.5672 27.0242C56.3199 26.9399 56.0608 27.0844 55.9784 27.3251C55.9784 27.3371 55.3071 29.4553 53.9528 32.8854C53.517 30.9477 52.6456 28.9137 52.6456 28.9137Z" fill="#8A4603"/>
</svg>
