<svg width="100" height="100" viewBox="0 0 100 100" fill="none" xmlns="http://www.w3.org/2000/svg">
<path d="M26.9207 69.7347C26.9207 69.7347 27.4876 72.6747 30.8637 75.1757C34.2361 77.6605 38.7099 77.7703 38.7099 77.7703C38.7099 77.7703 37.8016 77.2744 37.2878 76.8779C36.774 76.4814 36.7499 76.4527 36.7499 76.4527C36.7499 76.4527 41.7676 77.4123 44.8832 76.8369C47.9988 76.2614 48.9975 75.4936 48.9975 75.4936C48.9975 75.4936 48.2473 75.3884 47.8348 75.2078C47.4054 75.0309 47.3137 75.0173 47.3137 75.0173C47.3137 75.0173 50.4389 74.4057 52.7814 73.3042C55.1274 72.219 55.628 71.443 55.628 71.443C55.628 71.443 54.7378 71.5052 54.1721 71.5121C53.6233 71.5152 53.3809 71.3818 53.3809 71.3818C53.3809 71.3818 56.9343 70.3851 60.5759 68.1934C64.1969 65.9891 64.648 64.8324 64.648 64.8324C64.648 64.8324 63.9026 65.0667 63.3441 65.106C62.782 65.1292 62.782 65.1291 62.782 65.1291C62.782 65.1291 65.6588 63.2442 68.5682 59.1203C71.4776 54.9964 71.6513 53.8674 71.6513 53.8674C71.6513 53.8674 71.2955 54.1001 70.5742 54.3631C69.8565 54.6424 69.3728 54.6991 69.3728 54.6991C69.3728 54.6991 72.4656 51.318 73.8286 47.5729C75.1953 43.8441 75.135 42.6992 75.135 42.6992C75.135 42.6992 74.4619 43.4966 74.094 43.8341C73.7261 44.1717 73.5319 44.3342 73.5319 44.3342C73.5319 44.3342 74.9288 41.5356 75.8781 36.8096C76.8275 32.0836 76.8045 31.6628 76.8045 31.6628C76.8045 31.6628 75.7985 33.5906 75.4089 34.0693C75.0193 34.548 74.9892 34.5717 74.9892 34.5717C74.9892 34.5717 76.2413 31.601 77.3945 26.1992C78.5477 20.7974 79.8178 18.8618 79.8178 18.8618C79.8178 18.8618 77.2161 19.5952 74.6094 22.3739C71.9992 25.1364 67.3782 28.7391 67.3782 28.7391C67.3782 28.7391 68.1478 27.5794 68.6363 26.6698C69.1417 25.7565 69.319 25.3592 69.319 25.3592C69.319 25.3592 67.6641 25.4897 64.6426 27.2025C61.6211 28.9154 59.901 30.1847 59.901 30.1847C59.901 30.1847 60.5476 28.9503 61.293 28.239C62.0384 27.5276 62.0746 27.4514 62.0746 27.4514C62.0746 27.4514 58.8662 27.6898 54.9424 29.5697C51.0222 31.4658 49.5507 32.5776 49.5507 32.5776C49.5507 32.5776 49.5905 31.8021 50.3818 30.7398C51.1899 29.6738 51.4746 29.44 51.4746 29.44C51.4746 29.44 48.1166 29.6436 43.9708 32.3566C39.8251 35.0696 38.403 37.9931 38.403 37.9931C38.403 37.9931 38.5031 36.2162 38.8891 35.2443C39.2751 34.2724 39.4018 34.1249 39.4018 34.1249C39.4018 34.1249 34.2417 34.8324 32.2936 37.4643C30.3625 40.0925 29.506 42.5321 29.506 42.5321C29.506 42.5321 29.6424 40.9174 29.6918 39.8672C29.7377 38.8008 29.9331 38.2462 29.9331 38.2462C29.9331 38.2462 26.7295 38.5857 24.656 42.4039C22.5619 46.2097 22.6114 48.26 22.6114 48.26C22.6114 48.26 22.194 47.2628 22.0493 46.6136C21.9046 45.9645 21.9673 45.6098 21.9673 45.6098C21.9673 45.6098 18.731 51.0501 19.369 54.9453C20.007 58.8404 20.7247 59.9921 20.7247 59.9921C20.7247 59.9921 19.9202 59.8819 19.4666 59.4379C19.03 58.9901 18.9395 58.8229 18.9395 58.8229C18.9395 58.8229 16.4981 66.7946 26.9207 69.7347Z" fill="#C6C806"/>
<path d="M79.8178 18.8618C79.8178 18.8618 77.2157 19.5946 74.6066 22.3637C71.994 25.1167 67.3701 28.7081 67.3701 28.7081C67.3701 28.7081 68.1407 27.5528 68.6301 26.6467C69.1363 25.7369 69.314 25.3412 69.314 25.3412C69.314 25.3412 67.6592 25.4727 64.6364 27.1811C61.6136 28.8894 59.8925 30.1549 59.8925 30.1549C59.8925 30.1549 60.5402 28.9253 61.2862 28.2163C62.0323 27.5073 62.0685 27.4314 62.0685 27.4314C62.0685 27.4314 58.8603 27.6719 54.9352 29.5475C51.0137 31.4393 49.5412 32.5476 49.5412 32.5476C49.5412 32.5476 49.5818 31.7755 50.374 30.7171C51.1831 29.6549 51.468 29.4218 51.468 29.4218C51.468 29.4218 48.1102 29.6279 43.9624 32.3331C39.8145 35.0384 38.3897 37.9505 38.3897 37.9505C38.3897 37.9505 38.4916 36.1812 38.8785 35.2132C39.2654 34.2452 39.3922 34.0982 39.3922 34.0982C39.3922 34.0982 34.2321 34.8078 32.2817 37.4301C30.3482 40.0486 29.4895 42.4784 29.4895 42.4784C29.4895 42.4784 29.6274 40.8707 29.6779 39.825C29.7248 38.7633 29.9207 38.2109 29.9207 38.2109C29.9207 38.2109 26.7172 38.5521 24.6197 42.3433C22.5222 46.1345 22.5696 48.1757 22.5696 48.1757C22.5696 48.1757 22.1533 47.1833 22.0092 46.5371C21.8651 45.891 21.9282 45.5378 21.9282 45.5378C21.9282 45.5378 18.687 50.9575 19.321 54.8349C19.955 58.7123 20.6715 59.8583 20.6715 59.8583C20.6715 59.8583 19.8672 59.7493 19.4141 59.3077C18.9611 58.8661 18.8877 58.6959 18.8877 58.6959C18.8877 58.6959 16.5037 66.6885 26.9184 69.5892C27.6785 68.148 33.0858 60.2783 40.6197 55.665C48.15 51.0356 62.9315 38.6171 67.2787 34.3412C71.6116 30.0008 77.3272 21.3671 79.8178 18.8618Z" fill="#AAAD05"/>
<path d="M33.3239 60.5629C32.8806 57.9325 32.2353 51.1858 34.9786 42.6223C35.0811 42.2794 34.8929 41.917 34.5126 41.8164C34.1493 41.7121 33.7653 41.9157 33.6493 42.2785C30.436 52.3452 31.7642 60.0683 32.1364 61.7374C31.1489 62.7663 30.2198 63.8158 29.3489 64.886C29.3355 64.9059 29.305 64.9295 29.2915 64.9494C29.1532 65.1318 28.9943 65.302 28.8561 65.4845C23.7674 71.8754 20.785 78.4032 20.6059 79.2855C20.5241 79.6407 20.7768 79.9718 21.15 80.0402C21.5231 80.1086 21.8794 79.8607 21.9613 79.5055C22.134 78.6752 25.0104 72.4743 29.9572 66.2498L30.0685 66.107C39.082 69.7749 52.7168 68.4871 52.7508 68.4795C53.1366 68.444 53.4239 68.1272 53.3793 67.7666C53.3517 67.4021 53.0244 67.1381 52.6422 67.1896C52.6081 67.1972 39.639 68.4209 30.9394 65.0368C32.4961 63.1903 34.2376 61.37 36.1314 59.7516C46.7194 60.2887 62.6355 57.515 62.6867 57.5036C63.0653 57.4361 63.3113 57.0948 63.2702 56.7502C63.2086 56.3933 62.8543 56.169 62.4892 56.2167C62.4381 56.2281 48.0876 58.7201 37.7111 58.4897C38.4471 57.9381 39.2036 57.3988 39.971 56.9076C40.6126 56.495 41.2848 56.0587 41.9705 55.6026C41.9875 55.5988 42.001 55.5789 42.0351 55.5713C43.4809 54.5919 45.0111 53.5095 46.5746 52.3354C57.5952 51.0407 68.8738 46.1674 68.9043 46.1438C69.2479 45.9998 69.4115 45.6095 69.2681 45.2877C69.1248 44.9658 68.7167 44.821 68.373 44.965C68.3389 44.9726 58.7581 49.1135 48.725 50.744C49.8271 49.9086 50.9392 49.0373 52.0512 48.166L52.0817 48.1424C60.9637 41.1079 69.3795 33.5877 69.427 33.5603C69.7116 33.3115 69.728 32.9035 69.4725 32.6404C69.217 32.3772 68.7864 32.3722 68.5018 32.6209C68.4713 32.6446 60.9935 39.3155 52.7191 45.9449C53.3864 43.3196 54.8409 38.4465 57.1843 35.3127C57.4034 35.0112 57.3309 34.6062 57.035 34.4026C56.7221 34.2028 56.2923 34.2818 56.0697 34.5673C52.8967 38.7958 51.2838 45.928 51.0004 47.3053C49.3121 48.642 47.5996 49.9504 45.9276 51.1992C45.9141 51.2191 45.88 51.2267 45.8666 51.2465C44.6693 52.1368 43.4954 52.9714 42.3825 53.7586C42.5598 51.3436 43.1849 45.8805 45.38 40.2358C45.5202 39.9013 45.3284 39.5229 44.9786 39.3987C44.6289 39.2745 44.2241 39.4659 44.084 39.8004C41.4226 46.6441 41.0031 53.1901 40.9367 54.738C40.3596 55.1194 39.7825 55.5008 39.2324 55.8424C37.9284 56.6554 36.6872 57.5892 35.5114 58.5758C35.4979 58.5956 35.4638 58.6032 35.4504 58.6231C34.7152 59.2587 34.0178 59.9028 33.3239 60.5629Z" fill="#787A07"/>
</svg>
