<svg width="100" height="100" viewBox="0 0 100 100" fill="none" xmlns="http://www.w3.org/2000/svg">
<path d="M61.0252 43.4655C61.0252 43.4655 61.4835 36.891 64.0045 32.2368C66.5418 27.5826 68.1297 26.3784 68.1297 26.3784C68.1297 26.3784 67.9824 27.5989 68.097 28.3475C68.2116 29.096 68.2116 29.1286 68.2116 29.1286C68.2116 29.1286 69.2265 25.223 74.3994 23.319C79.5887 21.415 80.5054 20.6501 80.5054 20.6501C80.5054 20.6501 81.0293 23.856 83.9104 28.4614C86.7915 33.0667 84.1559 37.4931 84.1559 37.4931C84.1559 37.4931 85.3837 36.533 86.0221 35.9309C86.6769 35.3288 86.7096 35.2311 86.7096 35.2311C86.7096 35.2311 87.6427 41.0407 84.7943 45.939C81.946 50.8373 79.3759 52.5298 79.3759 52.5298C79.3759 52.5298 82.0933 51.5208 85.2691 51.7161C88.4612 51.9276 90 52.6925 90 52.6925C90 52.6925 89.6562 56.6469 87.1516 59.9016C84.6307 63.1563 83.7303 63.8398 83.7303 63.8398C83.7303 63.8398 84.336 63.7747 85.1872 63.4655C86.0385 63.14 86.284 62.9447 86.284 62.9447C86.284 62.9447 85.4164 67.5013 76.0528 70.0074C66.7055 72.5135 61.4999 69.8447 61.4999 69.8447C61.4999 69.8447 61.6963 77.1189 57.8494 81.9358C54.0025 86.7527 51.8907 87.9732 51.8907 87.9732C51.8907 87.9732 52.6601 86.4761 52.8074 85.7926C52.9548 85.1091 52.9875 84.8976 52.9875 84.8976C52.9875 84.8976 46.7342 87.6315 43.0018 87.957C39.2531 88.2824 31.6411 86.6551 31.6411 86.6551C31.6411 86.6551 32.3941 82.8146 34.1621 79.804C35.93 76.7934 37.2724 75.5729 37.2724 75.5729C37.2724 75.5729 28.1707 74.9708 23.276 72.4159C18.3814 69.8609 17.5138 67.7291 17.5138 67.7291C17.5138 67.7291 18.4305 67.9407 19.38 67.9569C20.3294 67.9732 20.4277 67.9407 20.4277 67.9407C20.4277 67.9407 16.106 65.3695 13.8306 60.0481C11.5551 54.7592 10 53.6201 10 53.6201C10 53.6201 13.3722 53.3597 17.7757 50.9512C22.1629 48.5265 27.4667 49.8446 27.4667 49.8446C27.4667 49.8446 26.8938 48.738 26.3209 48.2336C25.7315 47.7128 25.486 47.6477 25.486 47.6477C25.486 47.6477 27.4504 47.0944 31.6247 48.4126C35.7991 49.7307 38.6965 51.472 38.6965 51.472C38.6965 51.472 34.1457 47.0782 30.8553 42.2938C27.565 37.5094 27.565 33.9292 27.565 33.9292C27.565 33.9292 28.3016 34.5964 29.0546 35.1497C29.8077 35.703 29.955 35.7844 29.955 35.7844C29.955 35.7844 28.2361 30.9675 29.4311 26.2156C30.6425 21.4801 31.6083 20.3084 31.6083 20.3084C31.6083 20.3084 32.0012 21.3824 32.3123 21.9683C32.6233 22.5704 32.6724 22.5704 32.6724 22.5704C32.6724 22.5704 32.4596 20.764 33.6382 16.6794C34.8169 12.5948 34.6204 11 34.6204 11C34.6204 11 36.2083 12.2368 40.6609 13.9129C45.0972 15.5728 47.1107 18.9577 47.1107 18.9577C47.1107 18.9577 47.258 18.2417 47.1271 17.786C46.9961 17.3141 46.9634 17.2002 46.9634 17.2002C46.9634 17.2002 49.8936 17.8999 51.727 20.4386C53.5605 22.961 54.2807 24.5232 54.2807 24.5232C54.2807 24.5232 54.7882 23.9536 54.821 23.2539C54.8537 22.5541 54.8537 22.5541 54.8537 22.5541C54.8537 22.5541 58.406 27.0619 59.8138 32.9691C61.2216 38.8764 61.0252 43.4655 61.0252 43.4655Z" fill="#F27425"/>
<path d="M62 70.0399C62 71.2279 61.8183 77.5908 58.3164 81.9358C54.4346 86.7527 52.3037 87.9732 52.3037 87.9732C52.3037 87.9732 53.0801 86.4761 53.2287 85.7926C53.3774 85.1091 53.4104 84.8976 53.4104 84.8976C53.4104 84.8976 47.1004 87.6315 43.3342 87.957C39.5515 88.2824 31.8704 86.6551 31.8704 86.6551C31.8704 86.6551 32.6302 82.8146 34.4142 79.804C36.1982 76.7934 37.5527 75.5729 37.5527 75.5729C37.5527 75.5729 28.3355 74.9708 23.3964 72.4159C18.4574 69.8609 17.582 67.7291 17.582 67.7291C17.582 67.7291 18.507 67.9407 19.4651 67.9569C20.4231 67.9732 20.5222 67.9407 20.5222 67.9407C20.5222 67.9407 16.1614 65.3695 13.8653 60.0481C11.5693 54.7592 10 53.6201 10 53.6201C10 53.6201 13.4028 53.3597 17.8463 50.9512C22.2732 48.5265 27.6252 49.8446 27.6252 49.8446C27.6252 49.8446 27.047 48.738 26.4689 48.2336C25.8742 47.7128 25.6264 47.6477 25.6264 47.6477C25.6264 47.6477 27.6086 47.0944 31.8208 48.4126C36.033 49.7307 38.9568 51.472 38.9568 51.472C38.9568 51.472 34.3647 47.0782 31.0445 42.2938C27.7243 37.5094 27.7243 33.9292 27.7243 33.9292C27.7243 33.9292 28.4676 34.5964 29.2274 35.1497C29.9873 35.703 30.136 35.7844 30.136 35.7844C30.136 35.7844 28.385 30.9675 29.6074 26.2156C30.8297 21.4801 31.8043 20.3084 31.8043 20.3084C31.8043 20.3084 32.2008 21.3824 32.5146 21.9683C32.8285 22.5704 32.878 22.5704 32.878 22.5704C32.878 22.5704 32.6633 20.764 33.8526 16.6794C35.0419 12.5948 34.8437 11 34.8437 11C37.4867 15.0358 42.1118 23.5793 44.1931 30.4467C46.2745 37.2978 56.1029 60.7804 60.7776 68.1197C61.2071 68.8032 61.6201 69.4378 62 70.0399Z" fill="#D95F14"/>
<path d="M38.4168 63.8781C38.3516 63.8617 38.3026 63.8453 38.2373 63.8289C28.5761 61.5031 21.9992 57.7851 21.9666 57.7687C21.6565 57.5885 21.2648 57.7032 21.0853 58.0144C20.9058 58.3256 21.02 58.7187 21.3301 58.8988C21.3627 58.9152 27.3847 62.3221 36.4095 64.697C34.7286 65.4996 31.5952 66.6952 27.2868 67.0065C26.9278 67.0228 26.6667 67.334 26.683 67.6944C26.6993 68.0547 27.0094 68.3168 27.3684 68.3004C33.3904 67.8745 37.2908 65.7616 38.27 65.172C44.194 66.5642 51.2115 67.4159 58.6043 66.6461C58.8491 67.072 59.0939 67.4978 59.3387 67.9237C49.9386 78.2588 41.6155 80.8303 41.5829 80.8303C41.2402 80.945 41.0606 81.3053 41.1586 81.6493C41.2728 81.9932 41.6318 82.1734 41.9745 82.0751C42.0072 82.0751 50.4934 79.4381 60.0241 69.103C63.6634 75.2123 67.8413 81.0433 72.525 85.8095C72.7698 86.0552 73.1778 86.0716 73.4389 85.8095C73.6837 85.5639 73.7001 85.1544 73.4389 84.8923C68.6409 80.0278 64.3978 74.033 60.7259 67.7763C60.7096 67.7271 60.6769 67.678 60.6443 67.6452C75.6747 67.4323 82.8554 56.6713 82.8881 56.6385C83.0839 56.3437 83.0186 55.9342 82.7249 55.7377C82.4311 55.5411 82.0231 55.6067 81.8273 55.9015C81.811 55.9342 74.7445 66.4987 59.9099 66.3513C59.7957 66.1547 59.6814 65.9418 59.5672 65.7289C59.5509 65.6634 59.5182 65.6142 59.4693 65.5651C59.3061 65.2867 59.1592 64.9918 58.996 64.7134C63.6961 60.5531 67.1885 55.3118 69.7833 50.1852C71.1542 49.8249 76.9314 48.0396 81.7946 43.2733C82.0558 43.0276 82.0558 42.6181 81.811 42.356C81.5662 42.094 81.1582 42.094 80.8971 42.3397C77.0946 46.0741 72.7209 47.8758 70.5504 48.5964C71.1868 47.237 71.758 45.8939 72.2802 44.6C72.2966 44.5836 72.2966 44.5672 72.2966 44.5508C75.3973 36.7217 76.3928 30.3175 76.4091 30.2847C76.4581 29.9244 76.2296 29.5968 75.8706 29.5477C75.5115 29.4985 75.1852 29.7278 75.1362 30.0882C75.1362 30.1209 74.4018 34.7726 72.2639 40.9802C71.8886 38.0156 70.9257 35.3458 70.9094 35.3295C70.7951 34.9855 70.4198 34.8217 70.0771 34.9364C69.7344 35.051 69.5712 35.4277 69.6854 35.7717C69.6854 35.7881 71.4316 40.5871 71.0399 44.2069C70.3872 45.8448 69.6364 47.5482 68.7878 49.2516C68.7552 49.3007 68.7225 49.3663 68.6899 49.4318C66.2093 54.3946 62.8311 59.4885 58.3269 63.5341C55.7973 58.8497 53.5779 54.1162 51.6848 49.6938C54.7039 40.8492 53.3494 33.6424 53.3494 33.626C53.2841 33.2821 52.9577 33.0364 52.5987 33.1019C52.256 33.1674 52.0112 33.495 52.0764 33.8553C52.0764 33.8717 53.2351 40.0138 50.9177 47.8758C50.3955 46.631 49.9222 45.4189 49.449 44.256C49.4326 44.2069 49.4163 44.1577 49.3837 44.1086C45.6302 34.5596 43.6881 27.5167 43.6718 27.4675C43.5739 27.1236 43.2148 26.927 42.8721 27.0253C42.5294 27.1236 42.3336 27.4839 42.4315 27.8279C42.4478 27.877 44.2593 34.4286 47.7517 43.4862C41.6971 41.7009 37.862 37.213 37.8457 37.1967C37.6172 36.9182 37.2092 36.9018 36.9317 37.1311C36.6543 37.3605 36.638 37.7699 36.8665 38.0484C36.8828 38.0647 41.3544 43.2896 48.3392 44.9767C50.7872 51.1679 53.9695 58.3747 57.8699 65.4341C53.3167 65.8599 48.8941 65.6634 44.8305 65.1065C43.9819 64.3531 39.4776 60.2911 36.4911 56.7532C36.2626 56.4747 35.8546 56.442 35.5772 56.6713C35.2998 56.9006 35.2671 57.3101 35.4956 57.5885C37.6825 60.1928 40.6853 63.0591 42.4968 64.7461C41.1422 64.4841 39.7551 64.1893 38.4168 63.8781Z" fill="#A1450B"/>
</svg>
