<svg width="100" height="100" viewBox="0 0 100 100" fill="none" xmlns="http://www.w3.org/2000/svg">
<g clip-path="url(#clip0_405_7)">
<path d="M30.5621 72.2758C30.5621 72.2758 31.5513 75.1018 35.2557 77.0842C38.9543 79.0511 43.3963 78.5079 43.3963 78.5079C43.3963 78.5079 42.4255 78.1496 41.8593 77.8322C41.2932 77.5148 41.2652 77.4899 41.2652 77.4899C41.2652 77.4899 46.3692 77.7081 49.3677 76.6849C52.3662 75.6617 53.2424 74.7566 53.2424 74.7566C53.2424 74.7566 52.4848 74.7617 52.0504 74.6432C51.5998 74.5308 51.5071 74.5307 51.5071 74.5307C51.5071 74.5307 54.5099 73.4702 56.6669 72.0392C58.8297 70.6237 59.2119 69.783 59.2119 69.783C59.2119 69.783 58.3403 69.9743 57.7816 70.0635C57.2391 70.1465 56.9799 70.05 56.9799 70.05C56.9799 70.05 60.3502 68.5461 63.6335 65.8472C66.8947 63.1388 67.1724 61.9287 67.1724 61.9287C67.1724 61.9287 66.4691 62.2691 65.9223 62.3894C65.3696 62.4942 65.3696 62.4942 65.3696 62.4942C65.3696 62.4942 67.9411 60.2102 70.2185 55.7064C72.496 51.2026 72.5034 50.0603 72.5034 50.0603C72.5034 50.0603 72.1852 50.3423 71.5099 50.7077C70.8406 51.0885 70.3703 51.2151 70.3703 51.2151C70.3703 51.2151 72.9374 47.4194 73.7403 43.5158C74.549 39.6276 74.3226 38.5037 74.3226 38.5037C74.3226 38.5037 73.7729 39.3906 73.4581 39.7782C73.1433 40.1657 72.9748 40.3549 72.9748 40.3549C72.9748 40.3549 73.949 37.3826 74.1996 32.5687C74.4502 27.7548 74.3662 27.3418 74.3662 27.3418C74.3662 27.3418 73.6519 29.3957 73.3362 29.926C73.0204 30.4563 72.9941 30.4842 72.9941 30.4842C72.9941 30.4842 73.7999 27.3628 74.1538 21.8506C74.5076 16.3384 75.4821 14.2384 75.4821 14.2384C75.4821 14.2384 73.015 15.3431 70.8411 18.4719C68.6612 21.5853 64.6145 25.8228 64.6145 25.8228C64.6145 25.8228 65.2069 24.5634 65.5576 23.5923C65.9246 22.6151 66.0421 22.1962 66.0421 22.1962C66.0421 22.1962 64.4239 22.5664 61.6842 24.7012C58.9445 26.836 57.4277 28.3424 57.4277 28.3424C57.4277 28.3424 57.8875 27.027 58.5213 26.2147C59.1552 25.4023 59.1799 25.3216 59.1799 25.3216C59.1799 25.3216 56.0404 26.0249 52.4324 28.4565C48.8304 30.9036 47.5365 32.2179 47.5365 32.2179C47.5365 32.2179 47.4629 31.4449 48.0909 30.2787C48.7352 29.1063 48.9827 28.8335 48.9827 28.8335C48.9827 28.8335 45.6902 29.5242 41.984 32.8123C38.2778 36.1004 37.2968 39.1999 37.2968 39.1999C37.2968 39.1999 37.137 37.4274 37.3773 36.4096C37.6175 35.3918 37.7213 35.2275 37.7213 35.2275C37.7213 35.2275 32.7194 36.6793 31.1756 39.567C29.648 42.4484 29.1562 44.9868 29.1562 44.9868C29.1562 44.9868 29.0558 43.3695 28.9517 42.3233C28.8417 41.2616 28.9542 40.6844 28.9542 40.6844C28.9542 40.6844 25.8342 41.4871 24.3392 45.5667C22.8221 49.637 23.1697 51.6582 23.1697 51.6582C23.1697 51.6582 22.6115 50.7324 22.3738 50.1113C22.136 49.4902 22.1464 49.1301 22.1464 49.1301C22.1464 49.1301 19.7373 54.9839 20.936 58.7445C22.1348 62.5051 23.0126 63.54 23.0126 63.54C23.0126 63.54 22.2006 63.5482 21.6872 63.175C21.19 62.7956 21.0762 62.6433 21.0762 62.6433C21.0762 62.6433 19.8223 70.8857 30.5621 72.2758Z" fill="#C6C806"/>
<path d="M75.4821 14.2384C75.4821 14.2384 73.0145 15.3425 70.8368 18.4623C68.6532 21.5665 64.6019 25.7934 64.6019 25.7934C64.6019 25.7934 65.196 24.5381 65.5481 23.5704C65.9164 22.5965 66.0345 22.1791 66.0345 22.1791C66.0345 22.1791 64.4165 22.5504 61.6749 24.6809C58.9333 26.8115 57.4149 28.3142 57.4149 28.3142C57.4149 28.3142 57.8765 27.0033 58.5113 26.1932C59.1461 25.3831 59.1709 25.3028 59.1709 25.3028C59.1709 25.3028 56.0319 26.0082 52.422 28.4357C48.818 30.8786 47.5227 32.1896 47.5227 32.1896C47.5227 32.1896 47.4504 31.4198 48.0799 30.2573C48.7257 29.0886 48.9735 28.8165 48.9735 28.8165C48.9735 28.8165 45.6816 29.5096 41.9722 32.7903C38.2628 36.0711 37.2775 39.1597 37.2775 39.1597C37.2775 39.1597 37.1205 37.3945 37.3622 36.3804C37.6039 35.3664 37.708 35.2025 37.708 35.2025C37.708 35.2025 32.7063 36.6564 31.1589 39.5349C29.6275 42.4072 29.132 44.9361 29.132 44.9361C29.132 44.9361 29.0342 43.3255 28.9318 42.2836C28.8235 41.2263 28.9368 40.6513 28.9368 40.6513C28.9368 40.6513 25.8172 41.4556 24.2945 45.512C22.7718 49.5684 23.1161 51.5809 23.1161 51.5809C23.1161 51.5809 22.5596 50.6597 22.3229 50.0415C22.0863 49.4232 22.0972 49.0646 22.0972 49.0646C22.0972 49.0646 19.6802 54.8987 20.8725 58.6424C22.0647 62.386 22.9404 63.4154 22.9404 63.4154C22.9404 63.4154 22.1289 63.4248 21.6163 63.0539C21.1038 62.683 21.0064 62.5253 21.0064 62.5253C21.0064 62.5253 19.8124 70.78 30.5386 72.1322C31.0805 70.5956 35.2835 62.022 42.0648 56.3603C48.8402 50.683 61.6545 36.2433 65.3323 31.3797C68.9865 26.4542 73.3832 17.0799 75.4821 14.2384Z" fill="#AAAD05"/>
<path d="M35.5606 62.2689C34.7387 59.7312 33.1173 53.1505 34.5835 44.2787C34.6349 43.9245 34.396 43.5934 34.0051 43.5493C33.6305 43.499 33.2802 43.7564 33.2183 44.1322C31.506 54.5597 33.9454 62.0069 34.5568 63.604C33.7298 64.7657 32.9635 65.9394 32.2579 67.1251C32.2475 67.1467 32.2207 67.1745 32.2103 67.1961C32.1001 67.3968 31.9677 67.5883 31.8575 67.789C27.7543 74.8531 25.7549 81.7458 25.7063 82.6448C25.677 83.0081 25.9754 83.2989 26.3545 83.3122C26.7336 83.3255 27.05 83.0283 27.0792 82.665C27.1292 81.8184 29.0713 75.2645 33.0584 68.3857L33.1477 68.2282C42.5994 70.5437 55.901 67.2829 55.9336 67.2704C56.3101 67.1791 56.5482 66.8238 56.4515 66.4735C56.3711 66.1169 56.0088 65.9034 55.6382 66.0101C55.6056 66.0226 42.9532 69.1229 33.8533 67.0425C35.1244 64.9889 36.5821 62.9343 38.2199 61.0572C48.7732 60.0458 64.1152 54.9827 64.1642 54.964C64.5289 54.8419 64.7226 54.4685 64.6317 54.1335C64.5187 53.7894 64.1356 53.6191 63.7813 53.7195C63.7324 53.7383 49.8981 58.2946 39.5988 59.5786C40.2466 58.9257 40.9165 58.2819 41.604 57.6841C42.1787 57.1824 42.7802 56.6528 43.3921 56.1017C43.4084 56.0954 43.4188 56.0738 43.4514 56.0613C44.7391 54.8817 46.0953 53.5879 47.471 52.1985C58.1854 49.3118 68.6335 42.8472 68.6602 42.8194C68.9792 42.6268 69.0842 42.2169 68.8955 41.9194C68.7068 41.6219 68.2819 41.538 67.9629 41.7306C67.9303 41.7431 59.0551 47.2358 49.3666 50.3108C50.3352 49.3237 51.3085 48.2997 52.2817 47.2757L52.3084 47.2478C60.0706 38.9943 67.3009 30.3281 67.3439 30.294C67.5892 30.0064 67.5459 29.6004 67.2548 29.3773C66.9637 29.1542 66.537 29.2119 66.2917 29.4995C66.265 29.5273 59.839 37.2166 52.6188 44.9809C52.8965 42.2864 53.6254 37.2534 55.4872 33.8116C55.66 33.4814 55.5293 33.0912 55.2069 32.9329C54.8682 32.7809 54.4545 32.9216 54.2758 33.2365C51.7529 37.8822 51.1964 45.1733 51.1166 46.5772C49.6411 48.1456 48.1376 49.6896 46.6654 51.1687C46.6549 51.1903 46.6223 51.2028 46.6119 51.2244C45.5571 52.2797 44.5173 53.2764 43.531 54.2173C43.3546 51.8023 43.177 46.3064 44.5262 40.4021C44.6161 40.0508 44.3713 39.7043 44.0071 39.6324C43.643 39.5605 43.2705 39.8088 43.1806 40.1601C41.5447 47.3186 42.0835 53.8559 42.2433 55.397C41.728 55.8583 41.2127 56.3197 40.7182 56.7379C39.5466 57.7322 38.4546 58.8369 37.4351 59.9843C37.4247 60.0059 37.3921 60.0184 37.3816 60.04C36.747 60.7759 36.1508 61.5147 35.5606 62.2689Z" fill="#787A07"/>
</g>
<defs>
<clipPath id="clip0_405_7">
<rect width="71" height="49" fill="white" transform="translate(93 60) rotate(159.053)"/>
</clipPath>
</defs>
</svg>
