<svg width="390" height="128" viewBox="0 0 390 128" fill="none" xmlns="http://www.w3.org/2000/svg">
<path d="M390 0H0V128H390V0Z" fill="#DB7906"/>
<path d="M261 0H131V128H261V0Z" fill="#B46100"/>
<path d="M326 114C353.614 114 376 91.6142 376 64C376 36.3858 353.614 14 326 14C298.386 14 276 36.3858 276 64C276 91.6142 298.386 114 326 114Z" fill="white"/>
<path d="M197 115C224.614 115 247 92.6142 247 65C247 37.3858 224.614 15 197 15C169.386 15 147 37.3858 147 65C147 92.6142 169.386 115 197 115Z" fill="white"/>
<path d="M66 114C93.6142 114 116 91.6142 116 64C116 36.3858 93.6142 14 66 14C38.3858 14 16 36.3858 16 64C16 91.6142 38.3858 114 66 114Z" fill="white"/>
</svg>
