<svg width="390" height="128" viewBox="0 0 390 128" fill="none" xmlns="http://www.w3.org/2000/svg">
<g clip-path="url(#clip0_409_25)">
<path d="M-0.649902 -0.511993V128H129.74V-0.511993H-0.649902ZM64.6101 114.56C36.1401 114.56 13.0001 91.776 13.0001 63.744C13.0001 35.712 36.1401 12.928 64.6101 12.928C93.0801 12.928 116.22 35.712 116.22 63.744C116.22 91.776 93.0801 114.56 64.6101 114.56Z" fill="#D97A27"/>
<path d="M129.48 -0.384003V128H260V-0.384003H129.48ZM194.74 114.56C166.27 114.56 143.13 91.776 143.13 63.744C143.13 35.712 166.27 12.928 194.74 12.928C223.21 12.928 246.35 35.712 246.35 63.744C246.35 91.776 223.21 114.56 194.74 114.56Z" fill="#B36328"/>
<path d="M260 -0.384003V128H390.39V-0.384003H260ZM325.26 114.56C296.79 114.56 273.65 91.776 273.65 63.744C273.65 35.712 296.79 12.928 325.26 12.928C353.73 12.928 376.87 35.712 376.87 63.744C376.87 91.776 353.73 114.56 325.26 114.56Z" fill="#D97A27"/>
</g> 
<defs>
<clipPath id="clip0_409_25">
<rect width="390" height="128" fill="white"/>
</clipPath>
</defs>
</svg>
